<?xml version="1.0" encoding="UTF-8" standalone="no"?>
<!-- Created with Inkscape (http://www.inkscape.org/) -->

<svg
   width="210mm"
   height="297mm"
   viewBox="0 0 210 297"
   version="1.1"
   id="svg3420"
   inkscape:version="1.2 (dc2aedaf03, 2022-05-15)"
   sodipodi:docname="Linienelemente.svg"
   xmlns:inkscape="http://www.inkscape.org/namespaces/inkscape"
   xmlns:sodipodi="http://sodipodi.sourceforge.net/DTD/sodipodi-0.dtd"
   xmlns="http://www.w3.org/2000/svg"
   xmlns:svg="http://www.w3.org/2000/svg">
  <sodipodi:namedview
     id="namedview3422"
     pagecolor="#ffffff"
     bordercolor="#000000"
     borderopacity="0.25"
     inkscape:showpageshadow="2"
     inkscape:pageopacity="0.0"
     inkscape:pagecheckerboard="0"
     inkscape:deskcolor="#d1d1d1"
     inkscape:document-units="mm"
     showgrid="true"
     inkscape:zoom="32"
     inkscape:cx="6.546875"
     inkscape:cy="171.875"
     inkscape:window-width="1920"
     inkscape:window-height="1009"
     inkscape:window-x="-8"
     inkscape:window-y="-8"
     inkscape:window-maximized="1"
     inkscape:current-layer="layer1">
    <inkscape:grid
       type="xygrid"
       id="grid3545"
       units="mm"
       spacingx="0.2"
       spacingy="0.2" />
    <inkscape:grid
       type="xygrid"
       id="grid3547"
       units="mm"
       spacingx="0.2"
       spacingy="0.2"
       color="#00e55d"
       opacity="0.14901961"
       originx="0.1"
       originy="0.1"
       dotted="true"
       empspacing="1"
       empcolor="#00e566"
       empopacity="0.30196078" />
  </sodipodi:namedview>
  <defs
     id="defs3417">
    <inkscape:path-effect
       effect="bspline"
       id="path-effect27852"
       is_visible="true"
       lpeversion="1"
       weight="33.333333"
       steps="2"
       helper_size="0"
       apply_no_weight="true"
       apply_with_weight="true"
       only_selected="false" />
    <inkscape:path-effect
       effect="bspline"
       id="path-effect4194"
       is_visible="true"
       lpeversion="1"
       weight="33.333333"
       steps="2"
       helper_size="0"
       apply_no_weight="true"
       apply_with_weight="true"
       only_selected="false" />
    <inkscape:path-effect
       effect="bspline"
       id="path-effect7325-2-1-7"
       is_visible="true"
       lpeversion="1"
       weight="33.333333"
       steps="2"
       helper_size="0"
       apply_no_weight="true"
       apply_with_weight="true"
       only_selected="false" />
    <inkscape:path-effect
       effect="bspline"
       id="path-effect7325-2-5-8"
       is_visible="true"
       lpeversion="1"
       weight="33.333333"
       steps="2"
       helper_size="0"
       apply_no_weight="true"
       apply_with_weight="true"
       only_selected="false" />
    <inkscape:path-effect
       effect="bspline"
       id="path-effect19320-2"
       is_visible="true"
       lpeversion="1"
       weight="33.333333"
       steps="2"
       helper_size="0"
       apply_no_weight="true"
       apply_with_weight="true"
       only_selected="false" />
    <inkscape:path-effect
       effect="bspline"
       id="path-effect19320-2-0"
       is_visible="true"
       lpeversion="1"
       weight="33.333333"
       steps="2"
       helper_size="0"
       apply_no_weight="true"
       apply_with_weight="true"
       only_selected="false" />
    <inkscape:path-effect
       effect="bspline"
       id="path-effect24733"
       is_visible="true"
       lpeversion="1"
       weight="33.333333"
       steps="2"
       helper_size="0"
       apply_no_weight="true"
       apply_with_weight="true"
       only_selected="false" />
    <inkscape:path-effect
       effect="bspline"
       id="path-effect26322"
       is_visible="true"
       lpeversion="1"
       weight="33.333333"
       steps="2"
       helper_size="0"
       apply_no_weight="true"
       apply_with_weight="true"
       only_selected="false" />
    <inkscape:path-effect
       effect="bspline"
       id="path-effect19320-2-3"
       is_visible="true"
       lpeversion="1"
       weight="33.333333"
       steps="2"
       helper_size="0"
       apply_no_weight="true"
       apply_with_weight="true"
       only_selected="false" />
    <inkscape:path-effect
       effect="bspline"
       id="path-effect4194-6"
       is_visible="true"
       lpeversion="1"
       weight="33.333333"
       steps="2"
       helper_size="0"
       apply_no_weight="true"
       apply_with_weight="true"
       only_selected="false" />
  </defs>
  <g
     inkscape:label="Ebene 1"
     inkscape:groupmode="layer"
     id="layer1">
    <path
       style="fill:none;stroke:#5fbcd3;stroke-width:0.199999;stroke-linecap:square;stroke-miterlimit:5;stroke-dasharray:none;stroke-dashoffset:5.65039;paint-order:markers stroke fill;stroke-opacity:1"
       d="m 0.89974,2.9000001 c 0,-0.1336 0,-0.26693 -3.35e-6,-0.369665 -3.34e-6,-0.102735 -1e-5,-0.174715 -9.98e-6,-0.3584 2e-8,-0.183685 6.67e-6,-0.477655 0.083475,-0.7082601 C 1.06667,1.23307 1.23333,1.06641 1.433335,0.983205 1.63334,0.9 1.86666,0.9 2.05,0.9 c 0.1833401,0 0.31666,0 0.45,0 0.13334,0 0.26667,0 0.39974,0"
       id="path7323-0-0-9"
       inkscape:path-effect="#path-effect7325-2-1-7"
       inkscape:original-d="m 0.89974,2.9000001 c 2.6e-4,-0.1336 2.6e-4,-0.26693 0,-0.4 2.6e-4,-0.0724 2.5e-4,-0.14438 -2e-5,-0.21638 2.7e-4,-0.29537 2.8e-4,-0.58934 2e-5,-0.8836201 0.16693,-0.16693 0.33359,-0.33359 0.5,-0.5 0.2336,-2.7e-4 0.46692,-2.7e-4 0.7,0 0.1336001,-2.7e-4 0.26692,-2.7e-4 0.4000001,0 C 2.63334,0.89973 2.76667,0.89973 2.89974,0.9"
       sodipodi:nodetypes="cccccccc" />
    <path
       style="fill:none;stroke:#ff00ff;stroke-width:0.199999;stroke-linecap:square;stroke-miterlimit:5;stroke-dasharray:none;stroke-dashoffset:5.65039;paint-order:markers stroke fill"
       d="m 2.9,3.1 c -0.12814,4.3e-6 -0.25601,8.7e-6 -0.389345,8.7e-6 -0.133335,0 -0.271865,-4.4e-6 -0.441585,-6.5e-6 C 1.89935,3.1 1.69974,3.1 1.5330678,3.1667998 1.3663957,3.2335997 1.2330638,3.3669298 1.1665279,3.5335999 1.099992,3.70027 1.099992,3.900261 1.099992,4.066931 c 0,0.16667 0,0.299998 0,0.433334 0,0.133336 0,0.266666 0,0.399735"
       id="path7323-0-0"
       inkscape:path-effect="#path-effect7325-2-5-8"
       inkscape:original-d="M 2.9,3.1 C 2.77186,3.100269 2.64399,3.100273 2.51638,3.100013 2.37732,3.100273 2.23879,3.100269 2.1,3.1 c -0.20065,2.65e-4 -0.40026,2.65e-4 -0.600003,0 -0.1336,0.133601 -0.266935,0.266928 -0.400005,0.4 -2.7e-4,0.20027 -2.7e-4,0.400261 0,0.6 -2.7e-4,0.133601 -2.7e-4,0.266929 0,0.4 -2.7e-4,0.133601 -2.7e-4,0.266931 0,0.4"
       sodipodi:nodetypes="cccccccc" />
    <path
       style="fill:none;stroke:#5fbcd3;stroke-width:0.2;stroke-linecap:square;stroke-miterlimit:5;stroke-dashoffset:5.65039;stroke-opacity:1;paint-order:markers stroke fill"
       d="m 3.5,0.9 c 0.04727,0 0.09426,0 0.184429,0 0.090169,0 0.223502,0 0.3568355,0 0.1333335,0 0.2666665,0 0.3833335,0.0501325 C 4.541265,1.000265 4.641,1.1 4.741,1.2 c 0,0 0.3,0.3 0.3,0.3 0.066667,0.066667 0.1333335,0.1333335 0.3181698,0.3181697 C 5.544006,2.003006 5.847,2.306 6.15,2.609"
       id="path19318"
       inkscape:path-effect="#path-effect19320-2"
       inkscape:original-d="m 3.5,0.9 c 0.04727,2.65e-4 0.09426,2.65e-4 0.141,0 0.133598,2.65e-4 0.266931,2.65e-4 0.4,0 0.133598,2.65e-4 0.266931,2.65e-4 0.4,0 0.100265,0.100265 0.3,0.3 0.3,0.3 l 0.3,0.3 c 0,0 0.133069,0.133598 0.2,0.2 0.302741,0.303271 0.605735,0.606265 0.909,0.909"
       sodipodi:nodetypes="cccccc" />
    <path
       style="fill:none;stroke:#ff00ff;stroke-width:0.2;stroke-linecap:square;stroke-miterlimit:5;stroke-dasharray:none;stroke-dashoffset:5.65039;paint-order:markers stroke fill"
       d="m 3.5,3.1 c 0.203633,-6e-6 0.406726,-1.19e-5 0.550626,-1.19e-5 0.1439,0 0.225329,5.9e-6 0.3175714,0.051223 0.092242,0.051217 0.1953132,0.1542776 0.4619853,0.4209497 C 5.0968548,3.8388334 5.5274229,4.2694123 5.958,4.7"
       id="path4192"
       inkscape:path-effect="#path-effect4194"
       inkscape:original-d="m 3.5,3.1 c 0.203633,2.586e-4 0.406726,2.527e-4 0.611616,-1.79e-5 C 4.194526,3.1002527 4.275955,3.1002586 4.358,3.1 4.460175,3.2026938 4.563246,3.3057538 4.666269,3.408237 5.09659,3.8390982 5.527158,4.2696772 5.958,4.7"
       sodipodi:nodetypes="ccccc" />
    <path
       style="display:inline;fill:none;stroke:#66ff00;stroke-width:0.4;stroke-linecap:butt;stroke-miterlimit:5;stroke-dasharray:none;stroke-dashoffset:5.65039;paint-order:markers stroke fill"
       d="m 4,8.000001 c -0.1985401,-6.34e-5 -0.39699,-1.267e-4 -0.56363,-1.267e-4 -0.16664,1e-7 -0.3015299,6.34e-5 -0.4358599,9.5e-5 C 2.86618,8.000001 2.73278,8.000001 2.599706,7.966659 2.466632,7.933317 2.333308,7.866655 2.2331661,7.766352 2.1330241,7.6660489 2.0666743,7.5333489 2.0333371,7.3997094 2,7.26607 2,7.13307 2,6.999735 2,6.8664 2,6.73307 2,6.5664 2,6.39973 2,6.19974 2,6"
       id="path24731"
       inkscape:path-effect="#path-effect24733"
       inkscape:original-d="M 4,8.000001 C 3.80146,7.99967 3.60301,7.999781 3.40465,7.999811 3.26973,7.999831 3.13484,7.99967 3,8.000001 c -0.13382,-2.6e-4 -0.26722,-2.6e-4 -0.4,0 -0.13331,-0.0668 -0.26664,-0.13345 -0.4,-0.2 C 2.1329,7.666111 2.06657,7.533401 2,7.4 1.99974,7.26607 1.99974,7.13307 2,7 1.99974,6.8664 1.99974,6.73307 2,6.6 1.99974,6.39973 1.99974,6.19974 2,6"
       sodipodi:nodetypes="ccccccccc" />
    <path
       style="display:inline;fill:none;stroke:#4400aa;stroke-width:0.4;stroke-linecap:butt;stroke-miterlimit:5;stroke-dasharray:none;stroke-dashoffset:5.65039;paint-order:markers stroke fill"
       d="m 4.0000201,9 c -0.16673,0 -0.33274,0 -0.499735,0 -0.166995,0 -0.333665,0 -0.483365,0 -0.1497,0 -0.28383,0 -0.450518,-0.016692 C 2.3997142,8.9666157 2.1994406,8.9332368 2.008037,8.8582702 1.8166333,8.7833036 1.6332192,8.6665898 1.4831213,8.5163847 1.3330234,8.3661796 1.2164347,8.1829688 1.1415309,7.9913655 1.066627,7.7997622 1.0333416,7.6000497 1.016639,7.4306698 0.99993643,7.2612899 0.99987368,7.1243671 0.99987691,6.973829 0.99988014,6.8232909 0.99994976,6.6623479 0.99998155,6.4978289 1.0000133,6.33331 1.0000067,6.166749 1,6"
       id="path26320"
       inkscape:path-effect="#path-effect26322"
       inkscape:original-d="m 4.0000201,9 c -0.16673,2.65e-4 -0.33274,2.65e-4 -0.5,0 -0.16673,2.65e-4 -0.3334,2.65e-4 -0.5,0 -0.1328,2.65e-4 -0.26693,-2.7e-4 -0.4,0 -0.20027,-0.0336 -0.40054,-0.067 -0.6,-0.1 C 1.8166801,8.78323 1.63327,8.66651 1.45,8.55 1.33296,8.36622 1.21637,8.18301 1.1,8 1.0664,7.7998 1.0331,7.60009 1,7.4 0.99967,7.26129 1.00014,7.124367 0.99981,6.98541 1.00014,6.823291 1.00021,6.662348 1.00002,6.5 1.00028,6.33331 1.00027,6.166749 1,6"
       sodipodi:nodetypes="ccccccccccc" />
    <circle
       style="display:inline;fill:#ffffff;fill-opacity:1;stroke:#000000;stroke-width:0.25;stroke-opacity:1"
       id="path1017-4-0-5-8-70-7-3-9-7-95-5-9-33-1-8-6-3-9-8-3"
       cx="5"
       cy="44"
       inkscape:label="Rauscherstraße"
       r="0.75" />
    <circle
       style="display:inline;fill:#ffffff;fill-opacity:1;stroke:#000000;stroke-width:0.25;stroke-opacity:1"
       id="path1017-4-0-5-8-70-7-3-9-7-95-5-9-33-1-8-6-3-9-8-3-6"
       cx="5.1750002"
       cy="46.174999"
       inkscape:label="Rauscherstraße"
       r="0.52499998" />
    <path
       style="display:inline;fill:#ffffff;fill-opacity:1;stroke:#000000;stroke-width:0.25;stroke-opacity:1"
       id="path1017-4-0-5-8-70-7-3-9-7-95-5-9-33-1-8-6-3-9-8-3-6-9"
       inkscape:label="Rauscherstraße"
       sodipodi:type="arc"
       sodipodi:cx="13.175"
       sodipodi:cy="44.174999"
       sodipodi:rx="0.52499998"
       sodipodi:ry="0.52499998"
       sodipodi:start="0"
       sodipodi:end="3.1415927"
       sodipodi:arc-type="slice"
       d="m 13.7,44.174999 a 0.52499998,0.52499998 0 0 1 -0.2625,0.454664 0.52499998,0.52499998 0 0 1 -0.525,0 0.52499998,0.52499998 0 0 1 -0.2625,-0.454664 h 0.525 z" />
    <circle
       style="display:inline;fill:#ffffff;fill-opacity:1;stroke:#000000;stroke-width:0.17;stroke-opacity:1;stroke-dasharray:none"
       id="path1017-4-0-5-8-70-7-3-9-7-95-5-9-33-1-8-6-3-9-8-3-8"
       cx="5"
       cy="42"
       inkscape:label="Rauscherstraße"
       r="0.375" />
    <path
       style="display:inline;fill:#ffffff;fill-opacity:1;stroke:#000000;stroke-width:0.13;stroke-dasharray:none;stroke-opacity:1"
       id="path1017-4-0-5-8-70-7-3-9-7-95-5-9-33-1-8-6-3-9-8-3-8-9"
       inkscape:label="Rauscherstraße"
       sodipodi:type="arc"
       sodipodi:cx="7"
       sodipodi:cy="42"
       sodipodi:rx="0.375"
       sodipodi:ry="0.375"
       sodipodi:start="0"
       sodipodi:end="3.1415927"
       sodipodi:arc-type="slice"
       d="m 7.375,42 a 0.375,0.375 0 0 1 -0.1875,0.32476 0.375,0.375 0 0 1 -0.375,0 A 0.375,0.375 0 0 1 6.625,42 H 7 Z" />
    <path
       style="fill:none;stroke:#66ff00;stroke-width:0.4;stroke-linecap:butt;stroke-miterlimit:5;stroke-dasharray:none;stroke-dashoffset:5.65039;stroke-opacity:1;paint-order:markers stroke fill"
       d="m 5,6.4 c 0.1335979,0 0.2669313,0 0.3669322,0 0.1000008,0 0.1666641,10e-8 0.2666667,10e-8 0.1000026,0 0.2333323,-10e-8 0.3666658,0.066799 0.1333335,0.066799 0.2664021,0.1998676 0.3997355,0.333201 0,0 1.1999999,1.1999999 1.1999999,1.1999999"
       id="path27850"
       inkscape:path-effect="#path-effect27852"
       inkscape:original-d="m 5,6.4 c 0.1335979,2.646e-4 0.2669313,2.646e-4 0.4,0 0.066933,2.646e-4 0.1335963,2.646e-4 0.2000002,10e-8 0.1336013,2.645e-4 0.266931,2.645e-4 0.3999999,-10e-8 0.1335981,0.1335981 0.4000001,0.4000001 0.4000001,0.4000001 L 7.6000001,8"
       sodipodi:nodetypes="cccccc" />
    <rect
       style="display:inline;fill:#ffffff;fill-opacity:1;stroke:#000000;stroke-width:0.25;stroke-dasharray:none;stroke-opacity:1"
       id="rect4487-7-7-5-5-7"
       width="5"
       height="1.5"
       x="43.125"
       y="-8.6499996"
       ry="0.74999684"
       transform="rotate(90)"
       inkscape:label="Heiligenstadt"
       rx="0.74999684" />
    <rect
       style="display:inline;fill:#ffffff;fill-opacity:1;stroke:#000000;stroke-width:0.25;stroke-dasharray:none;stroke-opacity:1"
       id="rect4487-7-7-5-5-7-1"
       width="5"
       height="1.05"
       x="43.125"
       y="-3.3"
       ry="0.49999994"
       transform="rotate(90)"
       inkscape:label="Heiligenstadt"
       rx="0.52499998" />
  </g>
</svg>
